<svg width="84" height="32" viewBox="0 0 84 32" fill="none" xmlns="http://www.w3.org/2000/svg">
<rect width="84" height="32" fill="white"/>
<g clip-path="url(#clip0_41415_10878)">
<mask id="mask0_41415_10878" style="mask-type:luminance" maskUnits="userSpaceOnUse" x="0" y="0" width="32" height="32">
<path d="M32 0H0V32H32V0Z" fill="white"/>
</mask>
<g mask="url(#mask0_41415_10878)">
<path fill-rule="evenodd" clip-rule="evenodd" d="M17.1429 0H14.8571V10.1205L11.0659 0.736931L8.94666 1.59318L12.8361 11.2198L5.49442 3.87816L3.87818 5.49442L10.9148 12.5311L1.79586 8.5469L0.880734 10.6414L10.5297 14.8571H0V17.1429H10.5297L0.880738 21.3586L1.79586 23.4531L10.9148 19.469L3.87818 26.5056L5.49442 28.1218L12.8361 20.7802L8.94666 30.4069L11.0659 31.263L14.8571 21.8795V32H17.1429V21.8795L20.9341 31.263L23.0533 30.4069L19.164 20.7802L26.5056 28.1218L28.1218 26.5056L21.0851 19.469L30.2042 23.4531L31.1192 21.3586L21.4704 17.1429H32V14.8571H21.4702L31.1192 10.6414L30.2042 8.5469L21.0851 12.5311L28.1218 5.4944L26.5056 3.87816L19.164 11.2198L23.0533 1.59318L20.9341 0.736931L17.1429 10.1205V0Z" fill="#0A0D12"/>
</g>
</g>
<path d="M45.3393 22.3214C44.3155 22.3214 43.4256 22.1696 42.6696 21.8661C41.9137 21.5565 41.3185 21.119 40.8839 20.5536C40.4554 19.9881 40.2143 19.3244 40.1607 18.5625L40.1518 18.4286H42.75L42.7589 18.5089C42.7946 18.8304 42.9256 19.1131 43.1518 19.3571C43.3839 19.6012 43.6935 19.7917 44.0804 19.9286C44.4673 20.0655 44.9107 20.1339 45.4107 20.1339C45.8929 20.1339 46.3155 20.0625 46.6786 19.9196C47.0417 19.7768 47.3244 19.5804 47.5268 19.3304C47.7351 19.0744 47.8393 18.7827 47.8393 18.4554V18.4464C47.8393 18.0179 47.6667 17.6786 47.3214 17.4286C46.9821 17.1726 46.4107 16.9613 45.6071 16.7946L44.25 16.5179C42.9167 16.244 41.9435 15.7976 41.3304 15.1786C40.7232 14.5536 40.4196 13.75 40.4196 12.7679V12.7589C40.4196 11.9613 40.631 11.2679 41.0536 10.6786C41.4762 10.0833 42.0565 9.62202 42.7946 9.29464C43.5327 8.96131 44.378 8.79464 45.3304 8.79464C46.3304 8.79464 47.1875 8.95536 47.9018 9.27679C48.622 9.59821 49.1845 10.0417 49.5893 10.6071C49.994 11.1726 50.2232 11.8155 50.2768 12.5357L50.2857 12.6518H47.75L47.7321 12.5446C47.6786 12.2351 47.5476 11.9643 47.3393 11.7321C47.1369 11.5 46.8631 11.3185 46.5179 11.1875C46.1786 11.0506 45.7827 10.9821 45.3304 10.9821C44.8899 10.9821 44.503 11.0476 44.1696 11.1786C43.8363 11.3095 43.5774 11.494 43.3929 11.7321C43.2083 11.9643 43.1161 12.2411 43.1161 12.5625V12.5714C43.1161 12.9881 43.2827 13.3274 43.6161 13.5893C43.9554 13.8512 44.503 14.0595 45.2589 14.2143L46.625 14.5C47.5357 14.6845 48.2768 14.9345 48.8482 15.25C49.4256 15.5655 49.8512 15.9613 50.125 16.4375C50.3988 16.9137 50.5357 17.4851 50.5357 18.1518V18.1607C50.5357 19.0119 50.3274 19.75 49.9107 20.375C49.494 20.994 48.8958 21.4732 48.1161 21.8125C47.3423 22.1518 46.4167 22.3214 45.3393 22.3214ZM52.8661 22V8.45536H55.4732V13.7143H55.625C55.8512 13.1726 56.2024 12.747 56.6786 12.4375C57.1607 12.128 57.753 11.9732 58.4554 11.9732C59.1815 11.9732 59.7946 12.119 60.2946 12.4107C60.7946 12.7024 61.1726 13.122 61.4286 13.6696C61.6845 14.2173 61.8125 14.881 61.8125 15.6607V22H59.2054V16.25C59.2054 15.5595 59.0595 15.0357 58.7679 14.6786C58.4762 14.3155 58.0238 14.1339 57.4107 14.1339C57.006 14.1339 56.6577 14.2262 56.3661 14.4107C56.0804 14.5893 55.8601 14.8423 55.7054 15.1696C55.5506 15.497 55.4732 15.8839 55.4732 16.3304V22H52.8661ZM64.3125 22V12.1875H66.9196V22H64.3125ZM65.625 10.6964C65.2262 10.6964 64.881 10.5565 64.5893 10.2768C64.3036 9.99107 64.1607 9.64881 64.1607 9.25C64.1607 8.84524 64.3036 8.50298 64.5893 8.22321C64.881 7.94345 65.2262 7.80357 65.625 7.80357C66.0298 7.80357 66.375 7.94345 66.6607 8.22321C66.9464 8.50298 67.0893 8.84524 67.0893 9.25C67.0893 9.64881 66.9464 9.99107 66.6607 10.2768C66.375 10.5565 66.0298 10.6964 65.625 10.6964ZM69.4911 22V12.1875H72.0982V13.7232H72.25C72.4107 13.1875 72.7024 12.7708 73.125 12.4732C73.5536 12.1756 74.0833 12.0268 74.7143 12.0268C74.8929 12.0268 75.0655 12.0387 75.2321 12.0625C75.3988 12.0804 75.5446 12.1101 75.6696 12.1518V14.4196C75.4851 14.372 75.2917 14.3363 75.0893 14.3125C74.8929 14.2887 74.6935 14.2768 74.4911 14.2768C74.003 14.2768 73.5774 14.3661 73.2143 14.5446C72.8571 14.7232 72.5804 14.9792 72.3839 15.3125C72.1935 15.6458 72.0982 16.0446 72.0982 16.5089V22H69.4911ZM81.6607 22.0446C80.4762 22.0446 79.622 21.8363 79.0982 21.4196C78.5744 20.997 78.3125 20.3065 78.3125 19.3482V14.1518H76.8125V12.1875H78.3125V9.83929H80.9464V12.1875H82.9643V14.1518H80.9464V18.7679C80.9464 19.2083 81.0476 19.5298 81.25 19.7321C81.4524 19.9345 81.7708 20.0357 82.2054 20.0357C82.372 20.0357 82.5089 20.0327 82.6161 20.0268C82.7232 20.0208 82.8393 20.0119 82.9643 20V21.9375C82.8036 21.9673 82.6101 21.9911 82.3839 22.0089C82.1577 22.0327 81.9167 22.0446 81.6607 22.0446Z" fill="#0A0D12"/>
<defs>
<clipPath id="clip0_41415_10878">
<rect width="32" height="32" fill="white"/>
</clipPath>
</defs>
</svg>
