<svg width="30" height="10" viewBox="0 0 30 10" fill="none" xmlns="http://www.w3.org/2000/svg">
<path d="M4.5527 7.23387C4.5527 6.86377 4.55672 5.8745 4.54759 5.75262C4.55555 4.28057 3.48525 3.24217 2.80908 3.32312C2.3412 3.36372 1.94907 3.55451 1.73853 4.10335C1.54339 4.61484 1.71785 5.29519 2.36665 5.45484C3.06039 5.62629 3.46549 5.76894 3.75866 5.97019C4.11788 6.21657 4.41114 6.68729 4.41892 7.23446" fill="#0060AF"/>
<path d="M4.82928 9.47181C3.60604 9.47181 2.34889 9.17052 1.09341 8.57463L1.0626 8.55948L1.04787 8.52809C0.484466 7.33883 0.186523 6.03806 0.186523 4.76543C0.186523 3.49472 0.472243 2.24962 1.03606 1.06195L1.05155 1.03039L1.08295 1.01465C2.24433 0.464479 3.49369 0.185791 4.79747 0.185791C6.01201 0.185791 7.30909 0.496039 8.54791 1.08456L8.57972 1.0987L8.59437 1.13085C9.16857 2.34204 9.47137 3.64247 9.47137 4.89402C9.47137 6.1407 9.18063 7.38688 8.60575 8.59732L8.5906 8.62913L8.55862 8.64387C7.41499 9.18525 6.12528 9.47181 4.82928 9.47181ZM1.20961 8.41156C2.42925 8.98526 3.64563 9.275 4.82928 9.275C6.08434 9.275 7.33253 9.00066 8.4436 8.48062C8.99553 7.30769 9.27531 6.10052 9.27531 4.89402C9.27531 3.68265 8.98331 2.42258 8.43096 1.24705C7.22872 0.681887 5.97316 0.382187 4.79747 0.382187C3.53521 0.382187 2.32536 0.649908 1.19906 1.17807C0.658426 2.32923 0.383254 3.53548 0.383254 4.76543C0.383254 5.99771 0.669225 7.2583 1.20961 8.41156Z" fill="#0060AF"/>
<path d="M4.26285 7.23494C4.26511 6.76053 4.00031 6.34104 3.65424 6.11559C3.34725 5.91635 2.93512 5.78542 2.27026 5.61682C2.06474 5.56424 1.84976 5.44746 1.7832 5.29861C1.60715 5.476 1.57517 5.87482 1.60615 6.10789C1.64214 6.37762 1.95733 6.82214 2.43191 6.83956C2.72173 6.85119 3.08815 6.77719 3.26387 6.73986C3.56701 6.67439 4.04661 6.86425 4.12296 7.23436" fill="#0060AF"/>
<path d="M4.79706 1.02921C3.99239 1.02921 3.2973 1.55988 3.29981 2.47815C3.30232 3.25034 3.92332 3.66372 4.14492 3.95899C4.47978 4.40393 4.66102 4.93058 4.67986 5.73642C4.69451 6.37777 4.69375 7.01107 4.69702 7.23551H4.87466C4.87157 7.00069 4.86353 6.32837 4.87273 5.71658C4.88479 4.91049 5.07256 4.40393 5.40759 3.95899C5.63111 3.66372 6.2516 3.25034 6.25294 2.47815C6.25596 1.55988 5.56129 1.02921 4.75729 1.02921" fill="#0060AF"/>
<path d="M5.00098 7.23387C5.00098 6.86377 4.99679 5.8745 5.00575 5.75262C4.99788 4.28057 6.06751 3.24217 6.74426 3.32312C7.21215 3.36372 7.60385 3.55451 7.81498 4.10335C8.00995 4.61484 7.83448 5.29519 7.18645 5.45484C6.49236 5.62629 6.08777 5.76894 5.79384 5.97019C5.43504 6.21657 5.1623 6.68729 5.15393 7.23446" fill="#0060AF"/>
<path d="M5.29103 7.23494C5.28852 6.76053 5.55323 6.34104 5.8983 6.11559C6.20654 5.91635 6.61917 5.78542 7.28345 5.61682C7.48939 5.56424 7.70412 5.44746 7.7695 5.29861C7.94639 5.476 7.97829 5.87482 7.94731 6.10789C7.91056 6.37762 7.59621 6.82214 7.12247 6.83956C6.83273 6.85119 6.46438 6.77719 6.28942 6.73986C5.98746 6.67439 5.50652 6.86425 5.42983 7.23436" fill="#0060AF"/>
<path d="M5.53949 8.76606L5.43652 8.01472L5.68507 7.97705C5.7456 7.96876 5.81927 7.9793 5.84874 8.01723C5.8813 8.05682 5.89126 8.08956 5.89754 8.14146C5.90692 8.20567 5.88833 8.27993 5.816 8.31693V8.31918C5.89679 8.31918 5.94559 8.3772 5.95974 8.47514C5.96183 8.49582 5.96795 8.5458 5.96183 8.58749C5.94543 8.68669 5.88624 8.71859 5.78637 8.73257L5.53949 8.76606ZM5.69947 8.63153C5.72894 8.62732 5.75883 8.62576 5.78218 8.61085C5.81793 8.58749 5.81466 8.53752 5.80973 8.50044C5.79725 8.41889 5.77599 8.38792 5.68951 8.40073L5.63518 8.4091L5.66959 8.63572L5.69947 8.63153ZM5.6474 8.28436C5.6803 8.27902 5.72492 8.27507 5.74351 8.24384C5.75322 8.223 5.76569 8.20642 5.75749 8.16004C5.74736 8.10504 5.72911 8.07097 5.65929 8.0842L5.59424 8.09467L5.61986 8.28721" fill="#0060AF"/>
<path d="M6.61568 8.31449C6.61761 8.32847 6.61987 8.34404 6.62071 8.35801C6.6408 8.49506 6.61568 8.6085 6.46165 8.63972C6.23394 8.68359 6.19033 8.54211 6.15023 8.34404L6.12888 8.23688C6.09749 8.04735 6.08401 7.90386 6.30602 7.85966C6.43118 7.83681 6.51389 7.88662 6.54829 8.01118C6.55365 8.02977 6.56035 8.04819 6.56286 8.06686L6.42666 8.09499C6.41092 8.04819 6.39007 7.96456 6.32879 7.97159C6.21879 7.98481 6.25512 8.12169 6.26642 8.17887L6.30736 8.38456C6.31967 8.44676 6.34411 8.54612 6.4393 8.52695C6.51657 8.51147 6.48291 8.39108 6.47605 8.34178" fill="#0060AF"/>
<path d="M6.83522 8.54154L6.78809 7.764L6.97109 7.70816L7.35475 8.38441L7.21068 8.42752L7.11977 8.25566L6.95979 8.30371L6.98046 8.4991L6.83522 8.54154ZM6.94639 8.17814L7.062 8.14465L6.90847 7.83005" fill="#0060AF"/>
<path d="M2.31524 7.95419C2.3725 7.77085 2.42381 7.6359 2.64231 7.69584C2.75926 7.72849 2.83176 7.78005 2.82833 7.91592C2.82776 7.94615 2.81778 7.97695 2.81125 8.00684L2.67521 7.96925C2.69304 7.89424 2.70434 7.83472 2.61192 7.80626C2.5051 7.77696 2.47907 7.90647 2.46433 7.96239L2.409 8.16623C2.39142 8.22676 2.37032 8.3268 2.46433 8.35258C2.54202 8.37351 2.58915 8.29725 2.61728 8.18591L2.5221 8.16071L2.555 8.04275L2.77877 8.11475L2.67253 8.50762L2.56956 8.47966L2.59275 8.39662H2.58982C2.54244 8.46451 2.48459 8.47163 2.43394 8.46191C2.21017 8.40139 2.23353 8.25514 2.28694 8.05975" fill="#0060AF"/>
<path d="M3.14779 8.28559L3.0804 8.60522L2.92871 8.5724L3.09036 7.82608L3.34896 7.88452C3.50032 7.91716 3.54603 7.98455 3.5246 8.12327C3.51237 8.20289 3.47311 8.28869 3.37726 8.28175L3.37625 8.28044C3.45729 8.30882 3.46415 8.34967 3.45 8.42033C3.4439 8.45038 3.40179 8.6328 3.43083 8.66226L3.43184 8.68462L3.27487 8.64368C3.26834 8.59312 3.29053 8.50221 3.29932 8.45189C3.30819 8.40735 3.32234 8.34457 3.27713 8.32096C3.24172 8.30212 3.22858 8.30305 3.18856 8.29383L3.14779 8.28559ZM3.17366 8.16999L3.27579 8.19753C3.33783 8.20648 3.37232 8.17434 3.38454 8.09941C3.39559 8.03068 3.38127 8.00381 3.3256 7.9905L3.2161 7.96832" fill="#0060AF"/>
<path d="M4.12008 7.99309L4.2701 8.0105L4.20547 8.53515C4.17408 8.70149 4.10978 8.77424 3.92678 8.75146C3.7406 8.72794 3.6964 8.64314 3.7077 8.47546L3.77275 7.95123L3.92394 7.96856L3.85906 8.48106C3.85219 8.53674 3.8393 8.61919 3.93833 8.62916C4.02615 8.63586 4.04608 8.57767 4.05595 8.50534" fill="#0060AF"/>
<path d="M4.43652 8.78032L4.48165 8.03006L4.76988 8.04254C4.90608 8.04923 4.94174 8.16049 4.93747 8.26664C4.93354 8.33118 4.91336 8.40326 4.85711 8.44236C4.81098 8.47559 4.75171 8.48346 4.69671 8.48079L4.60278 8.47557L4.58403 8.79001L4.43652 8.78032ZM4.60705 8.36115L4.6834 8.36542C4.74543 8.36768 4.78654 8.34316 4.79189 8.25208C4.79491 8.16459 4.76184 8.14978 4.68147 8.14626L4.62095 8.14418" fill="#0060AF"/>
<path d="M24.765 1.75415L23.6194 3.83338C23.187 3.48228 22.659 3.22385 21.9854 3.22385C20.3912 3.22385 19.7437 4.41219 19.7437 5.24926C19.7437 5.87059 20.1505 6.78735 21.569 6.78735C22.1644 6.78735 23.0108 6.37313 23.2544 6.18469L22.1214 8.59694C21.5814 8.70469 21.404 8.77149 20.9468 8.78564C18.408 8.8614 17.3821 7.30179 17.3828 5.7081C17.3845 3.60132 19.2576 1.03914 22.3628 1.03914C22.5531 1.03914 22.7858 1.10494 22.9848 1.17786L23.1859 0.920685" fill="#0060AF"/>
<path d="M29.4921 0.985809L29.8165 8.54294H27.4023L27.4009 7.24686H25.7547L25.2129 8.54294H22.5947L25.332 3.1465L24.7147 3.14248L25.8875 0.985809H29.4921ZM27.3852 3.29769L26.4545 5.49579H27.4133" fill="#0060AF"/>
<path d="M15.8587 0.985887C17.0543 0.992584 17.7299 1.64154 17.7299 2.57899C17.7299 3.44318 17.0174 4.20817 16.2352 4.60372C17.0405 4.89973 17.1101 5.62639 17.1101 6.14048C17.1101 7.38248 15.8639 8.54302 14.2439 8.54302H10.7109L12.0891 3.22175L11.523 3.21849L12.6802 0.985887C12.6802 0.985887 14.8866 0.979189 15.8587 0.985887ZM14.6858 4.04986C14.9331 4.04986 15.3698 3.98724 15.4789 3.50864C15.5986 2.98911 15.1888 2.97513 14.9922 2.97513L14.2898 2.97205L14.0449 4.04988L14.6858 4.04986ZM13.6928 5.38529L13.3694 6.62728H14.1964C14.5218 6.62728 14.9653 6.46579 15.0739 6.06162C15.1812 5.65627 14.8712 5.38529 14.547 5.38529" fill="#0060AF"/>
</svg>
