<svg width="30" height="10" viewBox="0 0 30 10" fill="none" xmlns="http://www.w3.org/2000/svg">
<path fill-rule="evenodd" clip-rule="evenodd" d="M21.9985 0.889333C21.4281 1.23049 20.0827 2.02748 19.5805 2.32428C19.2744 2.48534 18.5655 2.55567 18.1646 1.99724C18.1574 1.98716 17.6313 1.30815 17.6098 1.28259C17.5948 1.26452 17.2546 0.743435 16.4968 0.727144C16.3848 0.724402 15.8281 0.721337 15.2849 1.04023C14.5629 1.46631 12.8837 2.45792 12.8837 2.45792C12.8832 2.45792 12.8832 2.4588 12.8824 2.4588C12.1921 2.86674 11.6543 3.18434 11.6543 3.18434L12.2897 3.99045C12.587 4.37169 13.2573 4.66663 13.8386 4.32193C13.8386 4.32193 15.9865 3.03715 15.9944 3.03344C16.9234 2.50719 17.6401 2.50719 18.1159 2.70302C18.5429 2.8894 18.9144 3.35379 18.9144 3.35379C18.9144 3.35379 19.3999 3.97529 19.4856 4.08401C19.7618 4.43524 20.2191 4.29725 20.2191 4.29725C20.2191 4.29725 20.3885 4.27741 20.6439 4.12078C20.6439 4.12078 22.7244 2.87472 22.7258 2.87432C23.3864 2.47397 23.9923 2.3992 24.302 2.42864C25.2719 2.5197 25.5732 3.21959 25.9938 3.70785C26.2414 3.99505 26.4649 4.15812 26.8067 4.1499C27.0312 4.14498 27.2849 4.00432 27.3223 3.97892L29.8137 2.49381C29.8137 2.49381 29.5581 2.09612 29.0346 1.47736C28.566 0.925304 28.0683 1.17508 27.6715 1.37808C27.5048 1.46325 26.9008 1.87828 26.3023 2.16781C25.8759 2.37404 25.2635 2.31202 24.9278 1.8836C24.9077 1.85755 24.3647 1.17847 24.3076 1.09491C24.0884 0.811343 23.6608 0.557373 23.1127 0.557373C22.7795 0.557373 22.4013 0.651251 21.9985 0.889333Z" fill="url(#paint0_linear_35265_466)"/>
<path fill-rule="evenodd" clip-rule="evenodd" d="M0.21385 6.69571C0.21385 6.25229 0.206041 5.88016 0.182617 5.54836H0.995283L1.03339 6.11841H1.05619C1.24038 5.81717 1.57722 5.46094 2.20554 5.46094C2.69596 5.46094 3.07903 5.74652 3.23964 6.17373H3.25541C3.38589 5.96009 3.53861 5.80193 3.71468 5.69071C3.92175 5.54054 4.15935 5.46094 4.46582 5.46094C5.08625 5.46094 5.7141 5.89613 5.7141 7.1309V9.40195H4.79485V7.27357C4.79485 6.63264 4.58068 6.25229 4.1289 6.25229C3.80658 6.25229 3.56883 6.49013 3.4699 6.76724C3.44663 6.86193 3.42368 6.98073 3.42368 7.09074V9.40195H2.50412V7.17034C2.50412 6.63264 2.29759 6.25229 1.86081 6.25229C1.50835 6.25229 1.27114 6.53763 1.18666 6.80612C1.14809 6.90169 1.13263 7.01218 1.13263 7.12275V9.40195H0.21385V6.69571Z" fill="#003A70"/>
<path fill-rule="evenodd" clip-rule="evenodd" d="M9.29525 8.47567C9.29525 8.82368 9.31055 9.16338 9.34889 9.40147H8.4982L8.43714 8.97426H8.41387C8.18416 9.27525 7.79344 9.48857 7.31082 9.48857C6.55984 9.48857 6.13867 8.92716 6.13867 8.34123C6.13867 7.36753 6.97343 6.87733 8.35258 6.88515V6.8216C8.35258 6.56827 8.25287 6.14913 7.5941 6.14913C7.22618 6.14913 6.84296 6.26793 6.59029 6.43383L6.40618 5.80128C6.68251 5.62683 7.16559 5.46045 7.75502 5.46045C8.95068 5.46045 9.29525 6.24438 9.29525 7.08283V8.47567ZM8.37556 7.5175C7.70914 7.50153 7.0734 7.65186 7.0734 8.23755C7.0734 8.61702 7.31085 8.79146 7.60974 8.79146C7.98469 8.79146 8.26094 8.53814 8.34495 8.26126C8.36775 8.19005 8.37556 8.11061 8.37556 8.04754V7.5175Z" fill="#003A70"/>
<path fill-rule="evenodd" clip-rule="evenodd" d="M9.94776 6.69571C9.94776 6.25229 9.93932 5.88016 9.91699 5.54836H10.7437L10.7899 6.12599H10.8126C10.9737 5.82564 11.3797 5.46094 12.0001 5.46094C12.6515 5.46094 13.3257 5.89613 13.3257 7.11509V9.40195H12.3835V7.22615C12.3835 6.67183 12.1843 6.25229 11.6709 6.25229C11.2955 6.25229 11.0351 6.52932 10.9352 6.82225C10.9051 6.90951 10.8971 7.02847 10.8971 7.13848V9.40195H9.94776V6.69571Z" fill="#003A70"/>
<path fill-rule="evenodd" clip-rule="evenodd" d="M17.4099 3.99927V8.31693C17.4099 8.71252 17.425 9.14062 17.4404 9.40144H16.5976L16.5599 8.7922H16.5443C16.322 9.21974 15.8692 9.48854 15.3259 9.48854C14.4376 9.48854 13.7325 8.70526 13.7325 7.51824C13.7247 6.22822 14.5061 5.46042 15.4024 5.46042C15.9155 5.46042 16.2836 5.6823 16.4519 5.9674H16.4674V3.99927H17.4099ZM16.468 7.15274C16.468 7.07442 16.4601 6.97901 16.4454 6.90014C16.361 6.52027 16.062 6.21146 15.633 6.21146C15.0277 6.21146 14.6906 6.76569 14.6906 7.48582C14.6906 8.18991 15.0277 8.70438 15.6253 8.70438C16.0082 8.70438 16.3455 8.43541 16.4373 8.01611C16.4601 7.92868 16.468 7.83383 16.468 7.7306V7.15274Z" fill="#003A70"/>
<path fill-rule="evenodd" clip-rule="evenodd" d="M18.0762 9.40193H19.0271V5.54858H18.0762V9.40193Z" fill="#003A70"/>
<path fill-rule="evenodd" clip-rule="evenodd" d="M19.6939 6.78996C19.6939 6.26791 19.686 5.89546 19.6631 5.54761H20.483L20.513 6.28331H20.5448C20.7283 5.7373 21.1651 5.54761 21.5633 5.54761C21.6551 5.54761 21.7086 5.5314 21.7855 5.54761V6.40251C21.7086 6.3867 21.6246 6.3709 21.5096 6.3709C21.0577 6.3709 20.751 6.67132 20.6668 7.10627C20.6519 7.19338 20.6364 7.29669 20.6364 7.40799V9.40144H19.6939V6.78996Z" fill="#003A70"/>
<path fill-rule="evenodd" clip-rule="evenodd" d="M22.2227 9.40193H23.1722V5.54858H22.2227V9.40193Z" fill="#003A70"/>
<defs>
<linearGradient id="paint0_linear_35265_466" x1="11.6543" y1="4.47458" x2="29.8137" y2="4.47458" gradientUnits="userSpaceOnUse">
<stop stop-color="#FFCA06"/>
<stop offset="0.330844" stop-color="#FBAA18"/>
<stop offset="0.694742" stop-color="#FFC907"/>
<stop offset="1" stop-color="#FAA619"/>
</linearGradient>
</defs>
</svg>
