<svg width="30" height="10" viewBox="0 0 30 10" fill="none" xmlns="http://www.w3.org/2000/svg">
<path fill-rule="evenodd" clip-rule="evenodd" d="M0.188477 3.56998L2.68811 6.72316L0.188477 8.79447V3.56998Z" fill="#F15A23"/>
<path fill-rule="evenodd" clip-rule="evenodd" d="M1.19531 8.79472L3.07616 7.22128L4.37616 8.79472H1.19531Z" fill="#F15A23"/>
<path fill-rule="evenodd" clip-rule="evenodd" d="M0.188477 1.88259L0.840788 2.70774L3.52284 6.05918L4.39193 5.36711C4.39193 5.36711 3.67043 4.51769 3.18598 3.56982C2.23882 1.71663 2.90938 0.562836 2.90938 0.562836H0.188477V1.88259Z" fill="#F15A23"/>
<path fill-rule="evenodd" clip-rule="evenodd" d="M3.90625 6.57764L4.79135 5.84656C4.79135 5.84656 5.63669 6.95932 6.61688 7.22196C7.90136 7.56614 8.47007 6.72409 8.47007 6.72409V8.7954H5.6488L6.28497 8.24537C6.28497 8.24537 5.95306 8.46664 5.14129 7.90437C4.66218 7.5725 3.90625 6.57764 3.90625 6.57764Z" fill="#F15A23"/>
<path fill-rule="evenodd" clip-rule="evenodd" d="M3.98659 0.557343C3.98659 0.557343 3.70423 0.941991 3.90522 1.88313C4.12005 2.88909 4.97443 3.95377 4.97245 3.92994C4.97245 3.92994 5.02738 2.87275 5.64777 2.25236C6.97015 0.929977 8.46904 1.71718 8.46904 1.71718V0.563378L3.98659 0.557343Z" fill="#F15A23"/>
<path fill-rule="evenodd" clip-rule="evenodd" d="M8.46981 3.11166C8.46981 3.11166 7.63354 2.39536 6.90648 2.39536C5.97642 2.39536 5.46875 3.19831 5.46875 3.78077C5.46875 4.62917 5.87597 5.10058 6.28471 5.50932C6.87208 6.09669 7.58667 6.7302 8.46981 6.22032C8.46981 5.25531 8.46981 3.11166 8.46981 3.11166Z" fill="#F15A23"/>
<path fill-rule="evenodd" clip-rule="evenodd" d="M17.9932 0.643707H19.9666C19.9666 0.643707 21.7147 3.2907 22.5739 4.38432C23.433 5.47795 24.3578 6.72362 24.3578 6.72362C24.3578 6.72362 24.3578 3.1113 24.3578 1.2365C24.3578 0.999514 23.7356 0.643707 23.7356 0.643707H26.0112C26.0112 0.643707 25.2645 0.950482 25.2645 1.2365C25.2645 3.57043 25.2645 9.21897 25.2645 9.21897C25.2645 9.21897 24.548 8.82167 23.7356 7.87758C22.8227 6.81683 19.5754 2.53432 19.5754 2.53432C19.5754 2.53432 19.5754 6.57717 19.5754 8.08116C19.5754 8.36523 20.1977 8.79493 20.1977 8.79493H17.9932C17.9932 8.79493 18.5976 8.36176 18.5976 8.08116C18.5976 6.05979 18.5976 3.1113 18.5976 1.2365C18.5976 0.9846 17.9932 0.643707 17.9932 0.643707Z" fill="#005E6A"/>
<path fill-rule="evenodd" clip-rule="evenodd" d="M27.2852 0.643707H29.8179C29.8179 0.643707 29.1378 0.965847 29.1378 1.2365C29.1378 3.1113 29.1378 6.21996 29.1378 8.08116C29.1378 8.37692 29.8179 8.79493 29.8179 8.79493H27.2852C27.2852 8.79493 27.9183 8.3674 27.9183 8.08116C27.9183 5.84609 27.9183 3.1113 27.9183 1.2365C27.9183 0.97629 27.2852 0.643707 27.2852 0.643707Z" fill="#005E6A"/>
<path fill-rule="evenodd" clip-rule="evenodd" d="M10.542 0.643707C10.542 0.643707 11.1986 0.97111 11.1986 1.2365C11.1986 3.1113 11.1986 5.84609 11.1986 8.08116C11.1986 8.37212 10.542 8.79493 10.542 8.79493C10.542 8.79493 13.8223 8.79493 14.2942 8.79493C14.5287 8.79493 17.1552 8.36544 17.1552 6.3405C17.1552 4.31556 15.115 4.12595 15.115 4.12595C15.115 4.12595 16.3579 3.78042 16.3579 2.395C16.3579 0.901669 14.5287 0.643707 14.2942 0.643707C13.8068 0.643707 10.542 0.643707 10.542 0.643707ZM12.5353 3.99176V1.44344C12.5353 1.44344 13.623 1.44344 14.0597 1.44344C14.2942 1.44344 15.115 1.71725 15.115 2.73311C15.115 3.57043 14.2942 3.99176 14.0597 3.99176C13.528 3.99176 12.5353 3.99176 12.5353 3.99176ZM12.5353 4.66012C12.5353 4.66012 14.0597 4.66012 14.2942 4.66012C14.5287 4.66012 15.9123 5.01951 15.9123 6.21996C15.9123 7.44386 14.5287 7.87758 14.2942 7.87758C14.0597 7.87758 12.5353 7.87758 12.5353 7.87758V4.66012Z" fill="#005E6A"/>
</svg>
