<svg width="30" height="12" viewBox="0 0 30 12" fill="none" xmlns="http://www.w3.org/2000/svg">
<path d="M9.68038 0.442321H1.89545C0.951496 0.442321 0.185547 1.22676 0.185547 2.19567V9.90329C0.185547 10.8633 0.936347 11.6428 1.86983 11.6566L9.67481 11.6569C10.6188 11.6569 11.3865 10.8722 11.3865 9.90329L11.3903 2.19567C11.3903 1.22676 10.6241 0.442321 9.68038 0.442321ZM2.8207 10.7584L2.39584 10.7635C1.88142 10.7635 1.46614 10.34 1.46614 9.81952L1.46302 9.74444V2.62677L1.46614 2.24313C1.48686 1.73962 1.86894 1.33281 2.37022 1.33281H3.23308C4.01663 1.33281 4.65024 2.01343 4.65024 2.81503C4.65024 3.21315 4.49429 3.57251 4.24209 3.83518L2.04027 6.06842L4.10485 8.17155C4.36997 8.44647 4.53038 8.80716 4.53038 9.20128C4.53038 10.061 3.76644 10.7584 2.8207 10.7584ZM9.16796 10.7519L5.31839 10.7508C5.31839 10.7508 5.76352 9.78788 5.76352 9.19281C5.76352 8.46719 5.5209 7.81776 5.14105 7.38911L3.82503 6.04658L5.16711 4.6595C5.5688 4.28209 5.83392 3.61439 5.83392 2.8549C5.83392 2.25315 5.66772 1.72002 5.39859 1.33281H6.33186C7.11474 1.33281 7.74902 2.01343 7.74902 2.81503C7.74902 3.21315 7.59373 3.57251 7.34221 3.83518L5.18115 6.04569L9.66812 10.6216C9.52509 10.7111 9.34642 10.7519 9.16796 10.7519ZM10.107 9.3227L6.89106 6.04502L8.42251 4.48906C8.73464 4.09807 8.93336 3.51102 8.93336 2.8549C8.93336 2.24959 8.76405 1.70242 8.4938 1.31543L9.17843 1.33682C9.69196 1.33682 10.1097 1.75901 10.1097 2.281L10.107 9.3227Z" fill="#00529C"/>
<path d="M18.29 5.52359C18.3526 5.46099 18.4266 5.38034 18.5119 5.28164C18.597 5.18294 18.6777 5.06643 18.7538 4.93186C18.83 4.7973 18.8951 4.64736 18.9488 4.48138C19.0027 4.31563 19.0297 4.13851 19.0297 3.95025C19.0297 3.58287 18.9668 3.24 18.8414 2.92163C18.7157 2.60349 18.523 2.32545 18.263 2.08773C18.003 1.85046 17.6782 1.66421 17.2881 1.52965C16.8982 1.39531 16.4431 1.32802 15.9233 1.32802H15.9091H14.4146H14.0256H12.4941V3.04216V8.97638V10.7411H16.2595C16.8062 10.7411 17.2834 10.6671 17.6916 10.5192C18.0993 10.3713 18.4379 10.1674 18.7068 9.90741C18.9757 9.64742 19.1751 9.34487 19.3052 8.99977C19.4351 8.65467 19.5002 8.28484 19.5002 7.89028C19.5002 7.36138 19.3792 6.89085 19.1373 6.47824C18.8951 6.06608 18.6126 5.74771 18.29 5.52359ZM16.6251 3.05286C16.7519 3.1012 16.8577 3.16403 16.9403 3.24312C17.1544 3.44853 17.2616 3.69404 17.2616 3.97966C17.2616 4.23876 17.2168 4.45286 17.1277 4.62241C17.0384 4.79217 16.949 4.92161 16.8599 5.01073H14.2424V2.94169H15.8694C16.1744 2.94169 16.4255 2.97934 16.6251 3.05286ZM16.3535 6.63976C16.8274 6.63976 17.1785 6.76252 17.4071 7.00759C17.6221 7.24887 17.7304 7.53359 17.7304 7.8631C17.7304 8.20263 17.6076 8.49248 17.3621 8.73354C17.1163 8.97459 16.7127 9.09534 16.1501 9.09534H15.94H14.2424V6.63976H16.3535Z" fill="#00529C"/>
<path d="M25.8853 6.68677C26.1676 6.49406 26.4031 6.26993 26.5914 6.01439C26.7796 5.75885 26.9184 5.47658 27.0082 5.16735C27.0978 4.85789 27.1428 4.54198 27.1428 4.21916C27.1428 3.79786 27.073 3.41021 26.9342 3.05598C26.795 2.70196 26.5867 2.39719 26.3089 2.14165C26.0308 1.88611 25.6835 1.68671 25.2667 1.54324C24.8498 1.39998 24.3679 1.32802 23.8212 1.32802H23.772H20.1501H20.1162V10.7411H21.8983V7.24486H22.8919L25.3495 10.7411H27.4384L24.897 7.12388C25.2733 7.02541 25.6028 6.87971 25.8853 6.68677ZM23.8346 2.94169C23.9466 2.94169 24.0525 2.94904 24.1532 2.96174C24.4708 3.00964 24.7304 3.12303 24.9305 3.30327C25.2027 3.54901 25.3388 3.85022 25.3388 4.20713C25.3388 4.38603 25.3096 4.56003 25.2517 4.72957C25.1936 4.89933 25.1022 5.04883 24.9772 5.17804C24.852 5.30771 24.6914 5.41242 24.4951 5.49284C24.2986 5.57327 24.062 5.61337 23.7853 5.61337H21.8983V2.94169H23.8346Z" fill="#00529C"/>
<path d="M28.0669 1.32802V1.3307C28.0488 1.33025 28.0312 1.32802 28.0132 1.32802H27.998V1.32869V4.77903V7.25132V10.7411H29.8151V1.32802H28.0669Z" fill="#00529C"/>
</svg>
