<svg width="21" height="21" viewBox="0 0 21 21" fill="none" xmlns="http://www.w3.org/2000/svg">
<path d="M6.6713 10.0514C6.6713 8.20885 8.16411 6.71481 10.0061 6.71481C11.8481 6.71481 13.3417 8.20885 13.3417 10.0514C13.3417 11.8939 11.8481 13.3879 10.0061 13.3879C8.16411 13.3879 6.6713 11.8939 6.6713 10.0514ZM4.86813 10.0514C4.86813 12.8899 7.16839 15.1908 10.0061 15.1908C12.8438 15.1908 15.1441 12.8899 15.1441 10.0514C15.1441 7.21285 12.8438 4.91193 10.0061 4.91193C7.16839 4.91193 4.86813 7.21285 4.86813 10.0514ZM14.1467 4.70814C14.1466 4.94569 14.217 5.17793 14.3488 5.3755C14.4807 5.57307 14.6682 5.72709 14.8875 5.81808C15.1069 5.90908 15.3483 5.93296 15.5812 5.88671C15.8142 5.84046 16.0282 5.72615 16.1962 5.55825C16.3641 5.39034 16.4786 5.17638 16.525 4.94341C16.5714 4.71045 16.5478 4.46894 16.457 4.24944C16.3662 4.02994 16.2123 3.84229 16.0149 3.71024C15.8175 3.57819 15.5854 3.50765 15.3479 3.50756H15.3475C15.0291 3.50771 14.7239 3.63423 14.4988 3.85934C14.2736 4.08444 14.147 4.38973 14.1467 4.70814ZM5.96367 18.1984C4.98813 18.1539 4.45789 17.9914 4.10552 17.8541C3.63836 17.6721 3.30504 17.4555 2.95459 17.1054C2.60414 16.7553 2.38721 16.4222 2.20614 15.9549C2.06878 15.6026 1.90628 15.0721 1.86193 14.0962C1.81342 13.0412 1.80374 12.7243 1.80374 10.0514C1.80374 7.3786 1.81422 7.06255 1.86193 6.00666C1.90636 5.03083 2.07006 4.50132 2.20614 4.14797C2.38801 3.68067 2.60462 3.34726 2.95459 2.9967C3.30456 2.64615 3.63756 2.42916 4.10552 2.24804C4.45773 2.11064 4.98813 1.94809 5.96367 1.90373C7.01838 1.85521 7.33521 1.84552 10.0061 1.84552C12.677 1.84552 12.9941 1.85601 14.0497 1.90373C15.0253 1.94817 15.5546 2.11192 15.9079 2.24804C16.375 2.42916 16.7084 2.64663 17.0588 2.9967C17.4093 3.34678 17.6254 3.68067 17.8073 4.14797C17.9446 4.50028 18.1071 5.03083 18.1515 6.00666C18.2 7.06255 18.2097 7.3786 18.2097 10.0514C18.2097 12.7243 18.2 13.0403 18.1515 14.0962C18.107 15.0721 17.9437 15.6025 17.8073 15.9549C17.6254 16.4222 17.4088 16.7556 17.0588 17.1054C16.7088 17.4551 16.375 17.6721 15.9079 17.8541C15.5557 17.9915 15.0253 18.154 14.0497 18.1984C12.995 18.2469 12.6782 18.2566 10.0061 18.2566C7.33401 18.2566 7.01806 18.2469 5.96367 18.1984ZM5.88082 0.103094C4.81562 0.151617 4.08775 0.320567 3.45209 0.567987C2.79377 0.823494 2.23648 1.16628 1.67958 1.72245C1.12269 2.27863 0.780884 2.83696 0.52545 3.49547C0.278102 4.13171 0.109201 4.8594 0.0606917 5.9249C0.0113821 6.99209 9.53674e-05 7.33328 9.53674e-05 10.0514C9.53674e-05 12.7695 0.0113821 13.1106 0.0606917 14.1778C0.109201 15.2434 0.278102 15.971 0.52545 16.6073C0.780884 17.2654 1.12277 17.8244 1.67958 18.3803C2.2364 18.9362 2.79377 19.2785 3.45209 19.5348C4.08895 19.7822 4.81562 19.9511 5.88082 19.9996C6.94826 20.0482 7.28879 20.0603 10.0061 20.0603C12.7234 20.0603 13.0645 20.049 14.1314 19.9996C15.1966 19.9511 15.924 19.7822 16.5601 19.5348C17.218 19.2785 17.7757 18.9365 18.3326 18.3803C18.8895 17.8241 19.2306 17.2654 19.4867 16.6073C19.7341 15.971 19.9038 15.2433 19.9515 14.1778C20 13.1098 20.0113 12.7695 20.0113 10.0514C20.0113 7.33328 20 6.99209 19.9515 5.9249C19.903 4.85932 19.7341 4.13131 19.4867 3.49547C19.2306 2.83736 18.8886 2.27951 18.3326 1.72245C17.7766 1.1654 17.218 0.823494 16.5609 0.567987C15.924 0.320567 15.1966 0.150817 14.1322 0.103094C13.0653 0.0545712 12.7242 0.0424805 10.0069 0.0424805C7.28959 0.0424805 6.94826 0.0537705 5.88082 0.103094Z" fill="#0A0D12"/>
<path d="M6.6713 10.0514C6.6713 8.20885 8.16411 6.71481 10.0061 6.71481C11.8481 6.71481 13.3417 8.20885 13.3417 10.0514C13.3417 11.8939 11.8481 13.3879 10.0061 13.3879C8.16411 13.3879 6.6713 11.8939 6.6713 10.0514ZM4.86813 10.0514C4.86813 12.8899 7.16839 15.1908 10.0061 15.1908C12.8438 15.1908 15.1441 12.8899 15.1441 10.0514C15.1441 7.21285 12.8438 4.91193 10.0061 4.91193C7.16839 4.91193 4.86813 7.21285 4.86813 10.0514ZM14.1467 4.70814C14.1466 4.94569 14.217 5.17793 14.3488 5.3755C14.4807 5.57307 14.6682 5.72709 14.8875 5.81808C15.1069 5.90908 15.3483 5.93296 15.5812 5.88671C15.8142 5.84046 16.0282 5.72615 16.1962 5.55825C16.3641 5.39034 16.4786 5.17638 16.525 4.94341C16.5714 4.71045 16.5478 4.46894 16.457 4.24944C16.3662 4.02994 16.2123 3.84229 16.0149 3.71024C15.8175 3.57819 15.5854 3.50765 15.3479 3.50756H15.3475C15.0291 3.50771 14.7239 3.63423 14.4988 3.85934C14.2736 4.08444 14.147 4.38973 14.1467 4.70814ZM5.96367 18.1984C4.98813 18.1539 4.45789 17.9914 4.10552 17.8541C3.63836 17.6721 3.30504 17.4555 2.95459 17.1054C2.60414 16.7553 2.38721 16.4222 2.20614 15.9549C2.06878 15.6026 1.90628 15.0721 1.86193 14.0962C1.81342 13.0412 1.80374 12.7243 1.80374 10.0514C1.80374 7.3786 1.81422 7.06255 1.86193 6.00666C1.90636 5.03083 2.07006 4.50132 2.20614 4.14797C2.38801 3.68067 2.60462 3.34726 2.95459 2.9967C3.30456 2.64615 3.63756 2.42916 4.10552 2.24804C4.45773 2.11064 4.98813 1.94809 5.96367 1.90373C7.01838 1.85521 7.33521 1.84552 10.0061 1.84552C12.677 1.84552 12.9941 1.85601 14.0497 1.90373C15.0253 1.94817 15.5546 2.11192 15.9079 2.24804C16.375 2.42916 16.7084 2.64663 17.0588 2.9967C17.4093 3.34678 17.6254 3.68067 17.8073 4.14797C17.9446 4.50028 18.1071 5.03083 18.1515 6.00666C18.2 7.06255 18.2097 7.3786 18.2097 10.0514C18.2097 12.7243 18.2 13.0403 18.1515 14.0962C18.107 15.0721 17.9437 15.6025 17.8073 15.9549C17.6254 16.4222 17.4088 16.7556 17.0588 17.1054C16.7088 17.4551 16.375 17.6721 15.9079 17.8541C15.5557 17.9915 15.0253 18.154 14.0497 18.1984C12.995 18.2469 12.6782 18.2566 10.0061 18.2566C7.33401 18.2566 7.01806 18.2469 5.96367 18.1984ZM5.88082 0.103094C4.81562 0.151617 4.08775 0.320567 3.45209 0.567987C2.79377 0.823494 2.23648 1.16628 1.67958 1.72245C1.12269 2.27863 0.780884 2.83696 0.52545 3.49547C0.278102 4.13171 0.109201 4.8594 0.0606917 5.9249C0.0113821 6.99209 9.53674e-05 7.33328 9.53674e-05 10.0514C9.53674e-05 12.7695 0.0113821 13.1106 0.0606917 14.1778C0.109201 15.2434 0.278102 15.971 0.52545 16.6073C0.780884 17.2654 1.12277 17.8244 1.67958 18.3803C2.2364 18.9362 2.79377 19.2785 3.45209 19.5348C4.08895 19.7822 4.81562 19.9511 5.88082 19.9996C6.94826 20.0482 7.28879 20.0603 10.0061 20.0603C12.7234 20.0603 13.0645 20.049 14.1314 19.9996C15.1966 19.9511 15.924 19.7822 16.5601 19.5348C17.218 19.2785 17.7757 18.9365 18.3326 18.3803C18.8895 17.8241 19.2306 17.2654 19.4867 16.6073C19.7341 15.971 19.9038 15.2433 19.9515 14.1778C20 13.1098 20.0113 12.7695 20.0113 10.0514C20.0113 7.33328 20 6.99209 19.9515 5.9249C19.903 4.85932 19.7341 4.13131 19.4867 3.49547C19.2306 2.83736 18.8886 2.27951 18.3326 1.72245C17.7766 1.1654 17.218 0.823494 16.5609 0.567987C15.924 0.320567 15.1966 0.150817 14.1322 0.103094C13.0653 0.0545712 12.7242 0.0424805 10.0069 0.0424805C7.28959 0.0424805 6.94826 0.0537705 5.88082 0.103094Z" fill="#0A0D12"/>
</svg>
