<svg width="18" height="20" viewBox="0 0 18 20" fill="none" xmlns="http://www.w3.org/2000/svg">
<path d="M15.2759 4.25239C15.1432 4.18381 15.014 4.10863 14.8889 4.02713C14.5249 3.7865 14.1911 3.50296 13.8949 3.18262C13.1535 2.33442 12.8767 1.47394 12.7747 0.871476H12.7788C12.6936 0.371404 12.7288 0.0478516 12.7342 0.0478516H9.35775V13.1038C9.35775 13.2791 9.35775 13.4523 9.35038 13.6235C9.35038 13.6448 9.34833 13.6645 9.34711 13.6874C9.34711 13.6968 9.34711 13.7067 9.34506 13.7165C9.34506 13.7189 9.34506 13.7214 9.34506 13.7239C9.30947 14.1923 9.1593 14.6448 8.90777 15.0416C8.65625 15.4384 8.31106 15.7673 7.90259 15.9994C7.47687 16.2416 6.99537 16.3686 6.50558 16.368C4.93246 16.368 3.65751 15.0852 3.65751 13.5011C3.65751 11.9169 4.93246 10.6341 6.50558 10.6341C6.80337 10.6339 7.09932 10.6807 7.38245 10.773L7.38654 7.33514C6.52703 7.22412 5.65383 7.29243 4.82204 7.53576C3.99024 7.7791 3.2179 8.19218 2.55374 8.74894C1.97179 9.25458 1.48253 9.85791 1.108 10.5318C0.965472 10.7775 0.427721 11.7649 0.362601 13.3675C0.321645 14.2772 0.594821 15.2196 0.725061 15.6091V15.6173C0.806973 15.8466 1.12438 16.6293 1.64165 17.2891C2.05877 17.8183 2.55157 18.2833 3.10419 18.6689V18.6607L3.11238 18.6689C4.74693 19.7796 6.55923 19.7067 6.55923 19.7067C6.87296 19.694 7.92389 19.7067 9.11734 19.1411C10.441 18.5141 11.1946 17.5799 11.1946 17.5799C11.6761 17.0217 12.0589 16.3855 12.3266 15.6988C12.6322 14.8956 12.7342 13.9323 12.7342 13.5473V6.62087C12.7751 6.64544 13.3207 7.00627 13.3207 7.00627C13.3207 7.00627 14.1066 7.51003 15.3328 7.83808C16.2125 8.07153 17.3978 8.12068 17.3978 8.12068V4.76884C16.9825 4.8139 16.1392 4.68284 15.2759 4.25239Z" fill="#0A0D12"/>
</svg>
