<svg width="18" height="17" viewBox="0 0 18 17" fill="none" xmlns="http://www.w3.org/2000/svg">
<path d="M4.39886 16.1054V5.30025H0.810588V16.1054H4.39924H4.39886ZM2.60548 3.82524C3.85652 3.82524 4.63538 2.99553 4.63538 1.95863C4.61196 0.898104 3.85652 0.0915527 2.62927 0.0915527C1.40117 0.0915527 0.599083 0.898104 0.599083 1.95854C0.599083 2.99544 1.37766 3.82515 2.58196 3.82515H2.60519L2.60548 3.82524ZM6.38503 16.1054H9.97302V10.072C9.97302 9.74945 9.99644 9.4261 10.0912 9.19575C10.3505 8.55027 10.9409 7.8821 11.9324 7.8821C13.2305 7.8821 13.75 8.87287 13.75 10.3256V16.1054H17.3379V9.91005C17.3379 6.59131 15.568 5.04693 13.2072 5.04693C11.2717 5.04693 10.4217 6.12967 9.94942 6.86713H9.9733V5.30062H6.38521C6.43205 6.31427 6.38493 16.1058 6.38493 16.1058L6.38503 16.1054Z" fill="#0A0D12"/>
</svg>
