<svg width="15" height="15" viewBox="0 0 15 15" fill="none" xmlns="http://www.w3.org/2000/svg">
<path d="M7.50002 12.3959L4.04169 14.4792C3.88891 14.5764 3.72919 14.6181 3.56252 14.6042C3.39585 14.5903 3.25002 14.5347 3.12502 14.4375C3.00002 14.3403 2.9028 14.2189 2.83335 14.0734C2.76391 13.9278 2.75002 13.7645 2.79169 13.5834L3.70835 9.64585L0.645854 7.00002C0.506965 6.87502 0.420298 6.73252 0.385854 6.57252C0.351409 6.41252 0.361687 6.25641 0.416687 6.10419C0.471687 5.95197 0.55502 5.82696 0.666687 5.72919C0.778354 5.63141 0.931131 5.56891 1.12502 5.54169L5.16669 5.18752L6.72919 1.47919C6.79863 1.31252 6.90641 1.18752 7.05252 1.10419C7.19863 1.02085 7.3478 0.979187 7.50002 0.979187C7.65224 0.979187 7.80141 1.02085 7.94752 1.10419C8.09363 1.18752 8.20141 1.31252 8.27085 1.47919L9.83335 5.18752L13.875 5.54169C14.0695 5.56947 14.2222 5.63196 14.3334 5.72919C14.4445 5.82641 14.5278 5.95141 14.5834 6.10419C14.6389 6.25697 14.6495 6.41335 14.615 6.57335C14.5806 6.73335 14.4936 6.87558 14.3542 7.00002L11.2917 9.64585L12.2084 13.5834C12.25 13.7639 12.2361 13.9272 12.1667 14.0734C12.0972 14.2195 12 14.3409 11.875 14.4375C11.75 14.5342 11.6042 14.5897 11.4375 14.6042C11.2709 14.6186 11.1111 14.577 10.9584 14.4792L7.50002 12.3959Z" fill="#FFAB0D"/>
</svg>
